<?xml version="1.0" encoding="utf-8"?>
<!-- Generator: Adobe Illustrator 16.0.3, SVG Export Plug-In . SVG Version: 6.00 Build 0)  -->
<!DOCTYPE svg PUBLIC "-//W3C//DTD SVG 1.1//EN" "http://www.w3.org/Graphics/SVG/1.1/DTD/svg11.dtd">
<svg version="1.1" id="logo" xmlns="http://www.w3.org/2000/svg" xmlns:xlink="http://www.w3.org/1999/xlink" x="0px" y="0px"
	 width="200px" height="70px" viewBox="0 0 200 70" enable-background="new 0 0 200 70" xml:space="preserve">
<g>
	<path fill="#1DB9E8" d="M74.998,16.517c0.763,0.691,1.771,1.042,2.999,1.042c1.203,0,2.206-0.337,2.975-0.999
		c0.74-0.632,1.202-1.371,1.375-2.192c0.1-0.476,0.147-1.097,0.147-1.957c0-1.086-0.234-2.045-0.699-2.857
		c-0.397-0.693-1.392-1.856-3.58-1.856c-1.386,0-2.436,0.34-3.213,1.038c-0.698,0.629-1.137,1.354-1.304,2.146
		c-0.101,0.473-0.148,1.028-0.148,1.748c0,0.722,0.047,1.279,0.147,1.737C73.864,15.167,74.303,15.893,74.998,16.517z"/>
	<path fill="#1DB9E8" d="M120.049,19.25v7.113h1.67l-4.634,12.444l-4.66-12.444h1.711V19.25H97.204v-6.692l-8.076,1.618v5.075H71.04
		v7.113h2.895v18.055h-7.359V29.558c0-3.534-0.823-6.255-2.448-8.093c-1.697-1.917-4.342-2.89-7.861-2.89
		c-3.035,0-5.981,0.79-8.793,2.353l-0.446-1.678h-9.319v7.113h2.895v18.068h-7.36V19.25H22.271v7.113h2.895v15.393
		c-2.384,1.96-4.811,2.916-7.394,2.916c-1.867,0-2.42-0.438-2.545-0.573c-0.142-0.153-0.604-0.809-0.604-2.817V19.25H3.652v7.113
		h2.894v14.967c0,3.621,0.787,6.263,2.405,8.077c1.665,1.864,4.389,2.81,8.097,2.81c3.188,0,6.282-0.899,9.234-2.682l0.549,2.008
		h24.743v-7.111h-2.896V28.515c2.296-1.609,4.614-2.394,7.056-2.394c1.069,0,1.858,0.201,2.165,0.549
		c0.179,0.205,0.599,0.893,0.599,2.841v14.92h-2.893v7.111h29.299v-7.111h-2.895v-18.07l7.117,0.001v16.8
		c0,1.82,0.174,3.288,0.534,4.486c0.289,0.964,0.718,1.775,1.279,2.418c0.58,0.66,1.359,1.193,2.324,1.589
		c0.92,0.378,2.016,0.561,3.35,0.561l6.277,0.003l0.021-7.345l-5.542-0.012c-0.067-0.227-0.167-0.729-0.167-1.7v-16.8h6.838
		l8.946,23.464l-1.886,5.049c-0.038,0.097-0.074,0.176-0.104,0.244c-0.077,0.009-0.168,0.02-0.278,0.027l-4.998,0.425v6.92h6.691
		c1.655,0,2.969-0.493,3.906-1.463c0.712-0.735,1.32-1.775,1.859-3.187l11.966-31.479h2.612V19.25H120.049z"/>
</g>
</svg>
